<?xml version="1.0" standalone="no"?>
<!DOCTYPE svg PUBLIC "-//W3C//DTD SVG 20010904//EN"
 "http://www.w3.org/TR/2001/REC-SVG-20010904/DTD/svg10.dtd">
<svg version="1.0" xmlns="http://www.w3.org/2000/svg"
 width="1263.000000pt" height="1056.000000pt" viewBox="0 0 1263.000000 1056.000000"
 preserveAspectRatio="xMidYMid meet">

<g transform="translate(0.000000,1056.000000) scale(0.100000,-0.100000)"
fill="#000000" stroke="none">
<path d="M6110 8840 c-357 -43 -711 -158 -995 -324 -428 -249 -783 -622 -1003
-1054 -137 -270 -222 -545 -263 -862 -20 -152 -15 -489 10 -654 21 -139 51
-279 58 -272 2 2 -5 57 -17 122 -44 257 -49 614 -10 829 65 363 168 655 312
893 21 34 38 64 38 67 0 9 124 186 186 265 81 103 314 336 404 405 36 27 67
52 70 56 16 21 273 179 380 233 325 165 638 250 1011 276 194 13 492 -5 642
-40 62 -14 79 -11 27 5 -121 38 -293 57 -535 60 -132 2 -274 0 -315 -5z"/>
<path d="M7183 8552 c-11 -15 -23 -36 -27 -47 -4 -11 -36 -44 -71 -74 -58 -49
-64 -58 -70 -102 -4 -27 -10 -49 -14 -49 -4 0 -35 11 -69 25 -103 42 -162 27
-162 -39 0 -27 39 -76 60 -76 18 0 11 -72 -22 -227 -32 -150 -34 -153 -59
-153 -15 0 -38 -9 -53 -21 -36 -28 -35 -72 3 -108 16 -15 32 -41 36 -59 l7
-32 -127 0 c-126 0 -126 0 -164 -31 -54 -43 -96 -105 -120 -177 -47 -138 -12
-384 65 -467 22 -24 224 -244 239 -261 6 -6 45 -50 89 -98 l78 -86 50 0 c55 0
54 -1 33 68 -7 21 -5 22 42 22 48 0 49 -1 71 -45 l22 -45 55 0 c30 0 55 4 55
9 0 5 -7 25 -15 45 l-15 36 48 0 c47 0 48 -1 70 -45 20 -42 24 -45 62 -45 43
0 50 12 25 46 -25 33 -18 44 28 44 39 0 44 -3 70 -45 l29 -45 69 0 69 0 -21
53 c-12 28 -26 65 -32 82 -6 16 -16 41 -24 55 -8 15 -13 61 -13 118 0 79 21
482 34 665 4 57 4 57 -42 102 -43 40 -52 45 -96 45 l-49 0 7 42 c13 79 12 78
280 302 28 22 77 65 110 94 94 82 81 84 187 -26 52 -53 198 -205 326 -337 232
-240 274 -289 332 -380 l31 -49 0 -228 c0 -217 -1 -228 -19 -228 -10 0 -22 -7
-25 -16 -3 -9 -6 -178 -6 -377 0 -341 -1 -364 -20 -394 -10 -18 -35 -61 -54
-96 l-36 -65 35 -163 c67 -320 86 -403 90 -408 3 -2 16 22 30 55 14 32 30 68
36 79 5 11 29 78 54 150 36 108 41 131 29 138 -11 6 -14 42 -14 186 l0 178 38
66 c20 37 40 67 45 67 4 0 7 -25 7 -57 0 -78 6 -64 14 35 l6 82 -55 0 -55 0 0
265 c0 229 -2 265 -15 265 -13 0 -15 21 -15 130 0 72 2 130 4 130 2 0 16 -34
31 -75 16 -42 29 -74 31 -72 7 6 -44 169 -89 287 -143 375 -382 712 -697 985
-84 73 -300 226 -317 225 -5 -1 -25 -22 -46 -48 -65 -82 -103 -122 -114 -122
-6 0 -29 8 -52 18 -40 18 -40 19 -24 43 9 13 43 54 76 91 55 63 64 88 33 88
-8 0 -33 -24 -57 -52 -24 -29 -60 -71 -81 -93 l-36 -40 -54 24 c-29 12 -68 28
-85 34 -18 6 -33 14 -33 19 0 8 70 77 80 79 3 0 15 2 28 3 13 2 42 22 65 45
40 40 41 43 23 57 -25 18 -50 18 -66 -1 -7 -8 -21 -15 -31 -15 -15 0 -18 -5
-14 -23 5 -19 -5 -33 -51 -75 -31 -29 -63 -52 -70 -52 -28 0 -13 39 31 79 25
23 45 48 45 57 0 9 10 24 22 33 13 11 19 24 15 34 -9 25 -31 21 -54 -11z m157
-447 c17 -9 30 -19 30 -23 -1 -10 -30 -47 -142 -176 -15 -17 -35 -46 -45 -63
-15 -29 -23 -33 -59 -33 l-41 0 5 53 c4 45 12 60 54 110 29 33 58 57 70 57 22
0 60 18 70 34 4 6 8 21 8 34 0 26 10 27 50 7z m-209 -45 c19 -10 19 -12 2 -35
-25 -34 -33 -31 -33 10 0 38 2 40 31 25z m-149 -99 c1 -26 -1 -71 -5 -100 l-9
-51 -42 0 -43 0 8 48 c5 26 13 58 19 72 5 14 14 37 19 53 7 17 18 27 30 27 16
0 20 -8 23 -49z m-57 -331 c0 -35 0 -35 -47 -38 l-48 -3 0 34 c0 44 6 49 55
45 39 -3 40 -4 40 -38z"/>
<path d="M4937 8222 c-16 -3 -17 -50 -17 -578 l0 -574 -415 0 -415 0 0 -783 0
-784 39 -94 c21 -52 49 -116 62 -144 l24 -50 3 68 3 67 49 0 50 0 0 -85 0 -85
-40 0 c-22 0 -40 -2 -40 -5 0 -11 33 -71 83 -150 208 -328 485 -600 820 -804
45 -27 79 -41 102 -41 l35 0 0 395 c0 220 -4 395 -9 395 -5 0 -14 -7 -21 -15
-7 -8 -23 -15 -36 -15 -22 0 -23 -4 -26 -82 l-3 -83 -70 0 -70 0 -1 70 c-1 39
-2 76 -3 83 -1 9 -32 12 -120 12 -112 0 -121 1 -135 22 -13 19 -14 25 -2 43
14 21 26 31 227 184 68 52 126 98 129 101 4 5 149 117 239 185 14 10 56 43 94
73 l67 53 0 59 0 60 79 0 78 0 259 200 c142 111 279 216 303 235 l44 35 -130
0 c-96 0 -133 3 -142 13 -7 10 -11 299 -11 1012 0 549 -1 1000 -3 1001 -3 4
-1061 9 -1080 6z m244 -169 c1 -10 1 -47 1 -83 l0 -65 -72 -3 -71 -3 3 86 2
85 68 0 c58 0 68 -3 69 -17z m499 -68 l0 -85 -70 0 -70 0 0 85 0 85 70 0 70 0
0 -85z m248 3 l-3 -83 -70 0 -70 0 -3 69 c-2 38 -1 75 2 83 4 9 26 13 76 13
l71 0 -3 -82z m-743 -383 c3 -41 4 -79 0 -85 -3 -5 -37 -10 -76 -10 l-69 0 0
78 c0 43 3 82 7 85 3 4 34 7 68 7 l63 0 7 -75z m495 -10 l0 -85 -70 0 -70 0 0
85 0 85 70 0 70 0 0 -85z m-495 -390 l0 -80 -70 0 -70 0 -3 69 c-4 97 -4 97
75 94 l68 -3 0 -80z m245 0 l0 -85 -70 0 -70 0 0 78 c0 43 3 82 7 85 3 4 35 7
70 7 l63 0 0 -85z m250 0 l0 -85 -70 0 -70 0 0 85 0 85 70 0 70 0 0 -85z
m-255 -395 c0 -75 -2 -85 -17 -84 -10 1 -40 2 -68 3 l-50 1 0 78 c0 43 3 82 7
86 4 4 34 6 68 4 l60 -3 0 -85z m503 3 l3 -81 -50 -4 c-91 -6 -96 -2 -99 76
-4 97 -4 97 75 94 l68 -3 3 -82z m-1610 28 c4 -11 5 -52 4 -91 l-4 -71 -46 3
-47 3 -3 74 c-2 41 -1 80 2 88 3 8 21 13 46 13 31 0 42 -5 48 -19z m177 -71
l0 -85 -45 0 -45 0 -3 74 c-4 98 -1 103 50 99 l43 -3 0 -85z m360 0 l0 -85
-47 -3 -48 -3 0 84 c0 46 3 87 7 91 4 4 25 6 48 4 l40 -3 0 -85z m333 -330 c5
-108 3 -111 -76 -108 l-67 3 0 80 c-1 44 1 84 3 88 2 4 34 7 70 5 l67 -3 3
-65z m487 -20 l0 -85 -65 0 -65 0 -3 74 c-4 102 -4 103 70 99 l63 -3 0 -85z
m250 0 l0 -85 -70 0 -70 0 -3 74 c-2 41 -1 80 2 88 4 10 23 13 73 11 l68 -3 0
-85z m-1605 -24 l0 -84 -46 -4 c-25 -2 -47 -1 -50 1 -2 2 -4 42 -4 88 l0 83
50 0 50 0 0 -84z m360 -1 l0 -85 -50 0 -50 0 0 85 0 85 50 0 50 0 0 -85z m180
1 l0 -84 -46 -4 c-25 -2 -47 -1 -50 1 -2 2 -4 42 -4 88 l0 83 50 0 50 0 0 -84z
m325 -366 l0 -85 -70 0 -70 0 -3 74 c-2 41 -1 80 2 88 4 10 23 13 73 11 l68
-3 0 -85z m243 -3 l3 -88 -68 3 -68 3 -3 74 c-4 102 -4 103 70 99 l63 -3 3
-88z m497 3 l0 -85 -70 0 -70 0 -3 74 c-2 41 -1 80 2 88 4 10 23 13 73 11 l68
-3 0 -85z m-1425 -15 l0 -85 -50 0 -50 0 0 85 0 85 50 0 50 0 0 -85z m360 0
l0 -85 -50 0 -50 0 0 85 0 85 50 0 50 0 0 -85z m-544 -296 c4 -7 7 -39 6 -73
0 -105 4 -97 -49 -94 l-48 3 -3 74 c-2 41 -1 80 2 88 7 16 82 18 92 2z m359
-79 l0 -85 -45 0 -45 0 -3 74 c-4 98 -1 103 50 99 l43 -3 0 -85z m755 -5 l0
-85 -70 0 -70 0 0 85 0 85 70 0 70 0 0 -85z m-930 -370 l0 -85 -50 0 -50 0 0
85 0 85 50 0 50 0 0 -85z m180 0 l0 -85 -50 0 -50 0 0 85 0 85 50 0 50 0 0
-85z m505 -805 l0 -84 -60 -2 c-33 0 -66 1 -73 4 -8 3 -12 28 -11 81 1 42 3
80 6 84 3 4 35 7 71 5 l67 -3 0 -85z"/>
<path d="M6525 6244 c-110 -84 -207 -160 -215 -167 -8 -7 -62 -48 -120 -92
-58 -44 -112 -85 -120 -92 -37 -30 -240 -187 -365 -283 -75 -58 -212 -163
-305 -235 -92 -71 -220 -170 -285 -220 -65 -49 -127 -98 -139 -107 -20 -17
-16 -17 100 -18 l121 0 49 39 c42 33 415 321 498 384 16 12 52 40 80 62 28 22
95 74 149 115 55 41 134 102 177 135 123 95 470 365 524 407 27 21 53 38 57
38 5 0 62 -41 127 -91 64 -50 191 -147 281 -217 171 -133 223 -172 331 -255
36 -28 77 -60 91 -71 14 -12 40 -32 59 -46 28 -22 151 -116 375 -290 33 -26
108 -83 168 -128 l107 -82 110 0 c61 0 110 3 110 8 0 4 -46 43 -102 87 -57 43
-150 116 -208 160 -58 45 -206 160 -330 256 -124 95 -268 207 -320 247 -52 40
-126 97 -165 127 -38 30 -117 90 -175 135 -58 44 -112 86 -120 93 -8 7 -64 50
-125 96 -60 46 -131 101 -156 123 -26 21 -51 38 -55 37 -5 0 -99 -70 -209
-155z"/>
<path d="M6680 6104 c-25 -20 -166 -130 -315 -245 -148 -114 -328 -253 -400
-309 -71 -55 -201 -155 -288 -223 -88 -67 -171 -132 -185 -144 -15 -11 -47
-36 -72 -55 l-45 -34 -3 -452 -2 -453 122 3 123 3 3 223 2 222 245 0 245 0 2
-217 3 -218 145 0 145 0 3 298 2 297 320 0 c176 0 321 -1 322 -2 1 -2 5 -138
8 -303 l5 -300 143 0 143 0 -1 223 -1 222 246 0 245 0 0 -130 c0 -71 3 -130 6
-130 15 0 75 48 191 154 l53 48 0 257 0 257 -32 24 c-18 13 -91 69 -163 124
-71 55 -134 104 -140 108 -5 4 -26 20 -45 35 -19 16 -53 42 -75 59 -98 76
-399 307 -509 392 -67 51 -154 119 -194 150 -163 126 -197 152 -202 152 -3 0
-25 -16 -50 -36z m168 -333 c104 -53 156 -137 156 -251 0 -82 -28 -145 -90
-199 -109 -95 -272 -94 -369 4 -59 59 -76 95 -82 180 -5 63 -2 79 19 126 67
145 232 208 366 140z"/>
<path d="M6629 5730 c-50 -26 -105 -92 -117 -141 l-10 -39 104 0 104 0 0 100
c0 97 -1 100 -22 100 -13 -1 -39 -10 -59 -20z"/>
<path d="M6757 5744 c-8 -16 -8 -182 0 -187 5 -3 51 -7 103 -8 l95 -3 -3 33
c-3 43 -52 113 -98 140 -42 25 -89 37 -97 25z"/>
<path d="M6508 5494 c-17 -16 24 -96 71 -142 30 -28 115 -65 125 -55 3 4 6 51
6 105 l0 98 -98 0 c-54 0 -101 -3 -104 -6z"/>
<path d="M6757 5493 c-8 -13 -6 -192 1 -197 13 -8 85 23 120 52 37 29 81 103
82 135 0 15 -11 17 -99 17 -55 0 -102 -3 -104 -7z"/>
<path d="M3921 5644 c0 -11 3 -14 6 -6 3 7 2 16 -1 19 -3 4 -6 -2 -5 -13z"/>
<path d="M5760 4017 c-3 -4 -96 -7 -205 -8 -200 -2 -353 -8 -835 -29 -256 -11
-355 -17 -765 -45 -1288 -89 -2510 -256 -3570 -489 -366 -81 -371 -87 -41 -56
236 21 651 55 886 70 85 6 218 15 295 20 202 14 829 47 1115 60 135 6 346 15
470 20 238 11 587 22 1330 42 614 17 3422 17 4035 0 1077 -29 1805 -58 2580
-102 518 -30 1486 -102 1553 -116 17 -3 22 0 22 15 0 15 -10 23 -37 30 -63 17
-399 87 -703 146 -480 93 -1440 227 -2010 280 -85 8 -198 19 -250 25 -215 23
-787 64 -1335 95 -429 25 -930 37 -1675 42 -470 3 -857 3 -860 0z"/>
</g>
</svg>
